# xmcd
#
# Track frame offsets:
#	150
#	12747
#	24942
#	37555
#	48757
#	60217
#	72920
#	87827
#	100662
#	112000
#	123852
#	135280
#	146967
#	159282
#	171715
#	182142
#	195105
#	206042
#	218870
#	233432
#	244542
#	257527
#	270800
#	284635
#	296095
#	308642
#	320797
#
# Disc length: 4431
#
# Revision: 1
# Processed by: cddbd v1.5.1PL0 Copyright (c) Steve Scherf et al.
# Submitted via: dBpowerAMP V4.0
# Normalized: r0:TDELIM( - )
#
DISCID=72114d1b
DTITLE=Various Artist - Motown - Mid Sixties Volume 1 - The Dream - 1963 - 1964
DYEAR=1900
DGENRE=Soul
TTITLE0=Martha Reeves and The Vandellas - (Love Is Like A) Heat Wave
TTITLE1=Marvin Gaye - I'm Crazy 'Bout My Baby
TTITLE2=Smokey Robinson and The Miracles - Micky's Monkey
TTITLE3=Mary Wells - You Lost The Sweetest Boy
TTITLE4=Marvelettes - As Long As I Know He's Mine
TTITLE5=Marvin Gaye - Can I Get A Witnes
TTITLE6=Kim Weston - Just Loving You
TTITLE7=Mary Wells - Whats Easy For Two Is Hard For One
TTITLE8=Smokey Robinson and The Miracles - I Gotta Dance To Keep From Crying
TTITLE9=Diana Ross and The Supremes - When The Lovelight Starts Shining Through His Eyes
TTITLE10=Martha Reeves and The Vandellas - Quicksand
TTITLE11=Eddie Holland - Leaving Here
TTITLE12=Marvin Gaye - You're A Wonderful One
TTITLE13=Temptations - The Way You Do The Things You Do
TTITLE14=Contours - Can You Do It
TTITLE15=Marvin Gaye - Try It Baby
TTITLE16=Martha Reeves and The Vandellas - In My Lonely Room
TTITLE17=Mary Wells - My Guy
TTITLE18=Shorty Long - Devil With The Blue Dress
TTITLE19=Eddie Holland - Just Ain't Enough Love
TTITLE20=Temptations - The Girl's Alright With Me
TTITLE21=Temptations - I'll Be In Trouble
TTITLE22=Temptations - You're My Remedy
TTITLE23=Diana Ross and The Supremes - Where Did Our Love Go
TTITLE24=Four Tops - Baby I Need Your Loving
TTITLE25=Detroit Spinners - Sweet Thing
TTITLE26=Smokey Robinson and The Miracles - I Like It Like That
EXTD=Tim1701 RIP
EXTT0=
EXTT1=
EXTT2=
EXTT3=
EXTT4=
EXTT5=
EXTT6=
EXTT7=
EXTT8=
EXTT9=
EXTT10=
EXTT11=
EXTT12=
EXTT13=
EXTT14=
EXTT15=
EXTT16=
EXTT17=
EXTT18=
EXTT19=
EXTT20=
EXTT21=
EXTT22=
EXTT23=
EXTT24=
EXTT25=
EXTT26=
PLAYORDER=
